<?xml version="1.0" encoding="utf-8"?>
<svg viewBox="0 0 89 89" x="0px" y="0px" xmlns="http://www.w3.org/2000/svg">
  <path d="M 29.423 25.375 L 27.423 23.185 C 28.304 22.631 29.143 22.013 29.933 21.335 C 30.548 20.826 30.965 20.119 31.113 19.335 C 31.177 18.811 31.076 18.279 30.823 17.815 C 30.714 17.571 30.569 17.346 30.393 17.145 L 33.533 15.245 L 50.453 31.355 L 46.283 34.415 L 34.283 22.295 Z M 49.753 25.685 C 49.073 24.195 49.053 22.195 49.683 19.685 C 50.069 18.336 50.324 16.953 50.443 15.555 C 50.432 14.509 49.937 13.526 49.103 12.895 C 48.437 12.353 47.634 12.007 46.783 11.895 C 45.936 11.781 45.076 11.969 44.353 12.425 C 43.283 13.075 42.903 13.825 43.223 14.675 C 43.603 15.445 44.142 16.127 44.803 16.675 L 41.223 18.945 C 40.144 17.992 39.325 16.781 38.843 15.425 C 38.303 13.475 39.243 11.805 41.633 10.425 C 43.338 9.37 45.319 8.847 47.323 8.925 C 49.267 9.011 51.133 9.711 52.653 10.925 C 53.787 11.717 54.588 12.899 54.903 14.245 C 55.06 15.405 54.985 16.584 54.683 17.715 L 54.303 19.505 C 54.111 20.309 53.964 21.124 53.863 21.945 C 53.817 22.441 53.874 22.942 54.033 23.415 L 61.803 17.935 L 65.203 20.565 L 52.603 29.815 C 51.363 28.663 50.39 27.253 49.753 25.685 Z M 87.383 40.575 L 78.793 19.575 C 78.658 19.238 78.433 18.944 78.143 18.725 L 55.253 1.575 C 54.817 1.27 54.277 1.151 53.753 1.245 L 22.263 5.965 C 21.808 6.036 21.391 6.262 21.083 6.605 L 11.533 17.095 C 11.373 17.276 11.245 17.482 11.153 17.705 L 0.673 44.425 C 0.514 44.864 0.514 45.346 0.673 45.785 L 4.013 55.785 C 4.103 56.038 4.239 56.272 4.413 56.475 L 25.413 80.325 C 25.549 80.478 25.707 80.61 25.883 80.715 L 33.033 85.005 C 33.335 85.188 33.68 85.288 34.033 85.295 C 34.156 85.305 34.28 85.305 34.403 85.295 L 60.163 80.525 C 60.361 80.482 60.552 80.415 60.733 80.325 L 76.933 71.725 C 77.397 71.488 77.755 71.085 77.933 70.595 L 87.433 41.965 C 87.583 41.511 87.566 41.017 87.383 40.575 Z M 74.533 21.035 L 51.003 40.245 L 19.923 28.315 L 24.183 9.725 L 53.533 5.245 Z M 14.753 19.515 L 21.623 11.965 L 17.793 28.615 L 6.673 51.245 L 4.673 45.185 Z M 7.643 54.155 L 7.533 53.965 L 19.243 30.245 L 50.293 42.065 L 54.833 70.185 L 28.333 77.575 L 28.153 77.465 Z M 59.113 76.635 L 34.393 81.245 L 30.693 79.025 L 56.143 71.935 L 70.743 70.515 Z M 74.533 68.105 L 56.833 69.875 L 52.263 41.745 L 75.723 22.635 L 83.403 41.405 Z" transform="matrix(0.629321, 0.777146, -0.777146, 0.629321, 49.943978, -18.193703)" />
</svg>