<?xml version="1.0" encoding="utf-8"?>
<svg viewBox="0 0 88 88" x="0px" y="0px" xmlns="http://www.w3.org/2000/svg">
  <title>Artboard 6</title>
  <polyline style="stroke: rgb(0, 0, 0); fill: rgb(168, 198, 230);" points="47.885 3.356 9.291 21.584 7.764 67.901 39.785 85.254 78.765 70.446 79.324 27.172" />
  <path d="M 86.908 56.552 L 72.908 14.552 C 72.703 13.93 72.206 13.448 71.578 13.262 L 34.578 2.262 C 33.868 2.048 33.099 2.245 32.578 2.772 L 1.578 33.772 C 1.038 34.311 0.852 35.11 1.098 35.832 L 16.098 79.832 C 16.341 80.559 16.978 81.083 17.738 81.182 L 53.738 86.182 L 54.008 86.182 C 54.489 86.182 54.955 86.008 55.318 85.692 L 86.318 58.692 C 86.929 58.163 87.162 57.319 86.908 56.552 Z M 19.448 77.182 L 26.608 42.232 L 59.688 76.232 Z M 72.268 26.872 L 27.338 38.792 L 34.398 7.042 Z M 25.268 38.992 L 6.168 34.842 L 31.888 9.182 Z M 61.388 75.102 L 27.918 40.712 L 73.388 28.642 L 73.508 28.992 L 61.508 74.992 Z M 72.008 24.472 L 41.488 8.472 L 69.488 16.782 Z M 5.668 36.782 L 24.828 40.952 L 18.168 73.442 Z M 53.378 82.072 L 30.508 78.902 L 57.738 78.282 Z M 64.228 72.632 L 74.668 32.472 L 82.668 56.552 Z M 36.648 30.682 C 36.854 29.248 37.501 27.913 38.498 26.862 C 39.191 26.061 39.807 25.198 40.338 24.282 C 40.677 23.628 40.703 22.857 40.408 22.182 C 40.182 21.643 39.785 21.193 39.278 20.902 C 38.747 20.609 38.123 20.534 37.538 20.692 C 36.638 20.892 36.158 21.332 36.078 22.002 C 36.077 22.601 36.2 23.193 36.438 23.742 L 33.438 24.442 C 33.044 23.494 32.899 22.461 33.018 21.442 C 33.278 19.932 34.418 18.972 36.418 18.532 C 37.818 18.173 39.296 18.282 40.628 18.842 C 41.847 19.369 42.822 20.337 43.358 21.552 C 43.797 22.442 43.872 23.468 43.568 24.412 C 43.258 25.246 42.8 26.019 42.218 26.692 L 41.368 27.772 C 40.828 28.439 40.468 28.929 40.288 29.242 C 40.14 29.536 40.046 29.855 40.008 30.182 L 46.628 28.442 L 47.738 30.892 L 37.098 33.782 C 36.707 32.798 36.553 31.736 36.648 30.682 Z M 51.578 16.992 C 53.044 18.236 54.215 19.79 55.008 21.542 C 55.958 23.14 56.465 24.963 56.478 26.822 C 56.378 28.222 55.418 29.182 53.608 29.672 C 51.984 30.213 50.197 29.905 48.848 28.852 C 47.299 27.51 46.09 25.821 45.318 23.922 C 44.435 22.319 44.019 20.5 44.118 18.672 C 44.318 17.372 45.308 16.532 47.118 16.142 C 48.656 15.724 50.301 16.038 51.578 16.992 Z M 50.318 26.652 C 50.831 27.357 51.723 27.678 52.568 27.462 C 53.334 27.324 53.804 26.544 53.568 25.802 C 53.293 24.556 52.845 23.354 52.238 22.232 C 51.701 21.033 51.008 19.91 50.178 18.892 C 49.672 18.273 48.856 17.997 48.078 18.182 C 47.366 18.268 46.876 18.938 47.008 19.642 C 47.24 20.876 47.655 22.069 48.238 23.182 C 48.775 24.425 49.474 25.592 50.318 26.652 Z" transform="matrix(0.939693, 0.34202, -0.34202, 0.939693, 17.763791, -12.384607)" />
</svg>