<?xml version="1.0" encoding="utf-8"?>
<svg viewBox="0 0 102 112" version="1.1"
  xmlns="http://www.w3.org/2000/svg">
  <g transform="matrix(1.3333333,0,0,-1.3333333,0,491.52)">
    <g transform="matrix(0.023862, 0, 0, 0.02238, 0.750078, 285.388367)" origin="0.490009 0.554554">
      <path style="fill:#000000;fill-opacity:1;fill-rule:nonzero;stroke:none" d="M 121.063,2994.74 C 106.859,2797.23 97.5586,2331.16 256.445,1802.18 428.18,1230.43 797.285,585.949 1571.5,131.824 2345.72,585.949 2714.83,1230.43 2886.57,1802.18 c 158.88,528.98 149.58,995.05 135.38,1192.56 -413.82,15.45 -744.15,119.71 -990.55,238.15 -219.77,105.65 -373.2,222.67 -459.9,298.38 -86.69,-75.71 -240.11,-192.73 -459.89,-298.38 C 865.215,3114.45 534.871,3010.19 121.063,2994.74 Z M 147.086,1769.59 C -33.0234,2369.22 -3.64844,2892.69 11.8438,3055.54 l 4.8125,50.59 50.9804,0.96 c 418.6563,7.95 750.2893,110.9 994.8733,228.47 243.29,116.94 399.89,248.17 469.93,314.09 l 39.06,36.75 39.06,-36.75 c 70.05,-65.92 226.65,-197.15 469.94,-314.09 244.58,-117.57 576.21,-220.52 994.87,-228.47 l 50.98,-0.96 4.82,-50.59 C 3146.66,2892.7 3176.03,2369.23 2995.92,1769.59 2815.22,1167.97 2424.48,488.926 1599.85,16.2422 L 1571.5,0 1543.15,16.2422 C 718.531,488.938 327.789,1167.97 147.086,1769.59"/>
    </g>
  </g>
</svg>