<?xml version="1.0" encoding="utf-8"?>
<svg viewBox="0 0 95 95" x="0px" y="0px" xmlns="http://www.w3.org/2000/svg">
  <polyline style="stroke: rgb(0, 0, 0); fill: rgb(168, 198, 230);" points="5.259 39.222 6.905 50.67 45.98 92.19 90.624 56.154 89.317 44.88 51.193 3.078" />
  <path d="M 40.568 31.701 L 39.668 29.341 C 40.509 29.017 41.327 28.636 42.117 28.201 C 42.762 27.847 43.285 27.307 43.617 26.651 C 43.816 26.195 43.892 25.695 43.838 25.201 C 43.822 24.962 43.775 24.727 43.697 24.501 L 46.788 23.401 L 55.537 41.981 L 51.127 43.701 L 45.217 29.971 Z M 60.897 20.701 C 63.111 22.16 64.95 24.12 66.266 26.421 C 68.126 29.351 69.106 31.911 69.127 34.031 C 69.147 36.151 67.817 37.871 65.127 38.911 C 62.79 39.995 60.057 39.763 57.937 38.301 C 55.641 36.49 53.827 34.141 52.657 31.461 C 51.217 28.461 50.657 26.141 50.887 24.311 C 51.117 22.481 52.417 21.241 54.757 20.401 C 56.74 19.549 59.006 19.66 60.897 20.701 Z M 59.897 34.701 C 60.717 35.704 62.088 36.066 63.297 35.601 C 64.458 35.292 65.086 34.035 64.637 32.921 C 64.113 31.134 63.339 29.431 62.337 27.861 C 61.482 26.275 60.408 24.818 59.146 23.531 C 58.368 22.73 57.18 22.484 56.147 22.911 C 55.155 23.145 54.527 24.122 54.727 25.121 C 55.103 26.822 55.747 28.453 56.637 29.951 C 57.488 31.676 58.575 33.275 59.867 34.701 Z M 91.927 36.701 L 85.926 26.701 C 85.713 26.337 85.386 26.052 84.997 25.891 L 32.998 3.891 C 32.035 3.481 30.918 3.882 30.438 4.811 L 3.438 56.811 C 3.095 57.473 3.149 58.271 3.578 58.881 L 10.578 68.881 C 10.801 69.195 11.11 69.438 11.468 69.581 L 63.467 90.581 C 64.427 90.97 65.524 90.562 65.996 89.641 L 91.997 38.641 C 92.309 38.026 92.284 37.292 91.927 36.701 Z M 37.127 43.841 L 33.497 8.441 L 82.006 28.941 L 67.766 47.641 Z M 7.548 57.551 L 31.748 10.931 L 35.218 44.311 L 16.998 61.531 L 7.588 57.611 Z M 13.548 66.071 L 9.728 60.701 L 16.728 63.621 L 16.728 63.621 L 42.097 77.621 Z M 63.517 85.701 L 63.267 86.191 L 57.447 83.841 L 18.907 62.491 L 36.558 45.751 L 67.117 49.571 Z M 66.017 80.791 L 69.217 49.081 L 83.467 30.341 L 87.927 37.781 Z" transform="matrix(0.906308, 0.422618, -0.422618, 0.906308, 24.430351, -15.739805)" />
</svg>