<?xml version="1.0" encoding="utf-8"?>
<svg viewBox="0 0 87 87" x="0px" y="0px" xmlns="http://www.w3.org/2000/svg">
  <polyline style="paint-order: stroke; stroke: rgb(235, 235, 235); fill: rgb(168, 198, 230);" points="8.508 54.785 44.126 3.547 78.781 69.054 23.663 82.769" />
  <path d="M 84.477 63.712 L 40.077 1.832 C 39.206 0.621 37.363 0.756 36.677 2.082 L 6.957 59.762 C 6.611 60.438 6.677 61.251 7.127 61.862 L 26.357 88.082 C 26.733 88.596 27.331 88.9 27.967 88.902 C 28.221 88.9 28.471 88.853 28.707 88.762 L 83.597 66.762 C 84.786 66.276 85.215 64.813 84.477 63.762 Z M 11.087 60.492 L 36.407 11.342 L 27.467 82.842 Z M 29.307 84.212 L 38.947 7.112 L 79.797 63.972 Z M 60.117 56.212 L 57.647 57.032 L 59.887 63.442 L 55.357 65.102 L 53.307 58.502 L 43.797 61.672 L 42.617 56.502 L 46.797 39.412 L 51.147 38.412 L 56.147 52.862 L 58.557 52.122 Z M 51.967 54.132 L 48.667 43.462 L 46.237 55.902 Z" transform="matrix(0.990268, 0.139173, -0.139173, 0.990268, 6.701592, -5.935136)" />
</svg>