<?xml version="1.0" encoding="utf-8"?>
<svg viewBox="5 5 79 79" xmlns="http://www.w3.org/2000/svg">
  <polyline style="stroke: rgb(0, 0, 0); fill: rgb(168, 198, 230);" points="14.811 72.28 12.113 28.777 33.394 9.792 74.118 18.706 79.7 60.548 57.661 79.101 15.601 72.58" />
  <path d="M 78.65 67.605 L 80.64 24.012 C 80.692 23.16 80.198 22.369 79.411 22.043 L 41.141 5.758 C 40.53 5.513 39.838 5.586 39.29 5.951 L 13.81 21.817 C 13.287 22.145 12.945 22.696 12.881 23.309 L 8.368 68.371 C 8.324 68.787 8.414 69.21 8.624 69.574 C 8.857 70.007 9.242 70.341 9.706 70.508 L 50.019 83.292 C 50.532 83.455 51.089 83.403 51.565 83.15 L 77.594 69.277 C 78.216 68.943 78.618 68.309 78.65 67.605 Z M 76.59 25.218 L 74.729 65.794 L 37.289 52.943 L 41.127 10.153 Z M 16.761 24.729 L 39.036 10.852 L 35.309 53.014 L 12.61 66.119 Z M 13.962 67.681 L 36.392 54.731 L 72.863 67.262 L 50.413 79.196 Z M 61.532 32.896 C 61.582 32.433 61.51 31.965 61.325 31.538 C 61.012 30.72 60.289 30.132 59.427 29.99 C 58.048 29.701 56.913 30.356 56.015 31.96 C 55.39 33.312 54.937 34.737 54.666 36.203 C 55.258 35.611 55.996 35.185 56.805 34.968 C 57.63 34.778 58.487 34.767 59.316 34.937 C 61.168 35.269 62.775 36.404 63.704 38.039 C 64.736 39.873 65.102 42.005 64.743 44.077 C 64.483 46.306 63.544 48.401 62.052 50.077 C 60.554 51.762 58.465 52.424 55.778 52.049 C 52.941 51.725 50.609 49.66 49.944 46.883 C 49.2 44.073 49.128 41.128 49.737 38.286 C 49.989 36.713 50.332 35.154 50.761 33.619 C 51.255 31.838 52.079 30.164 53.188 28.684 C 53.967 27.693 54.981 26.913 56.139 26.415 C 57.332 25.929 58.65 25.836 59.9 26.149 C 61.667 26.46 63.253 27.423 64.344 28.847 C 65.354 30.265 65.822 31.999 65.664 33.732 Z M 54.154 46.116 C 54.579 47.048 55.451 47.699 56.466 47.841 C 57.412 48.013 58.38 47.662 58.996 46.923 C 59.741 46.033 60.2 44.939 60.313 43.784 C 60.583 42.589 60.439 41.336 59.902 40.234 C 59.473 39.402 58.679 38.818 57.756 38.655 C 57.037 38.518 56.291 38.655 55.669 39.041 C 54.554 39.846 53.846 41.097 53.733 42.468 C 53.468 43.695 53.625 44.975 54.18 46.101 Z" transform="matrix(0.984808, -0.173648, 0.173648, 0.984808, -7.051315, 8.403476)" />
</svg>