<?xml version="1.0" encoding="utf-8"?>
<svg viewBox="0 0 100 100" x="0px" y="0px" xmlns="http://www.w3.org/2000/svg">
  <polyline style="stroke: rgb(0, 0, 0); fill: rgb(168, 198, 230);" points="4.561 46.72 49.741 4.163 95.335 51.131 48.354 96.26" />
  <path d="M 46.098 36.115 C 45.831 35.016 46.026 33.856 46.638 32.905 C 45.341 32.943 44.054 32.665 42.888 32.095 C 42.055 31.659 41.296 31.096 40.638 30.425 C 39.449 29.292 38.892 27.647 39.148 26.025 C 39.401 24.432 40.561 23.045 42.628 21.865 C 44.448 20.734 46.602 20.264 48.728 20.535 C 50.594 20.762 52.323 21.632 53.618 22.995 C 54.202 23.635 54.663 24.378 54.978 25.185 C 55.317 26.146 55.226 27.206 54.728 28.095 C 56.157 28.011 57.587 28.253 58.908 28.805 C 60.198 29.338 61.355 30.147 62.298 31.175 C 63.657 32.485 64.31 34.364 64.058 36.235 C 63.778 38.062 62.485 39.635 60.178 40.955 C 56.261 43.469 51.106 42.826 47.928 39.425 C 47.031 38.507 46.398 37.363 46.098 36.115 Z M 54.728 38.425 C 55.717 38.628 56.745 38.449 57.608 37.925 C 58.418 37.562 58.982 36.805 59.098 35.925 C 59.083 34.946 58.659 34.017 57.928 33.365 C 57.2 32.516 56.219 31.923 55.128 31.675 C 54.143 31.492 53.125 31.677 52.268 32.195 C 51.464 32.566 50.903 33.319 50.778 34.195 C 50.785 35.192 51.218 36.138 51.968 36.795 C 52.692 37.618 53.658 38.188 54.728 38.425 Z M 47.168 29.885 C 48.02 30.033 48.897 29.87 49.638 29.425 C 50.349 29.11 50.85 28.454 50.968 27.685 C 50.986 26.927 50.676 26.198 50.118 25.685 C 49.527 25.006 48.729 24.539 47.848 24.355 C 46.984 24.211 46.097 24.381 45.348 24.835 C 44.647 25.155 44.147 25.797 44.008 26.555 C 43.978 27.357 44.308 28.131 44.908 28.665 C 45.497 29.288 46.273 29.703 47.118 29.845 Z M 92.728 27.145 C 92.482 26.665 92.053 26.304 91.538 26.145 L 27.368 7.115 C 26.319 6.795 25.209 7.38 24.878 8.425 L 5.818 70.665 C 5.498 71.714 6.083 72.824 7.128 73.155 L 71.348 93.225 C 71.541 93.292 71.744 93.326 71.948 93.325 C 72.273 93.325 72.593 93.242 72.878 93.085 C 73.358 92.839 73.719 92.41 73.878 91.895 L 92.878 28.675 C 93.034 28.165 92.98 27.615 92.728 27.145 Z M 87.318 29.145 L 37.528 58.625 L 28.318 11.575 Z M 26.988 15.245 L 35.668 59.575 L 10.468 69.145 Z M 12.298 70.585 L 36.608 61.355 L 65.958 87.355 Z M 70.608 88.805 L 38.508 60.365 L 87.988 31.015 Z" transform="matrix(0.866025, 0.5, -0.5, 0.866025, 31.699522, -17.951668)" />
</svg>